<svg width="544" height="471" viewBox="0 0 544 471" fill="none" xmlns="http://www.w3.org/2000/svg">
<path d="M23.5708 469.422L22.1339 470.251H28.1969L26.7609 469.422L40.7878 461.322L40.7689 470.25H42.3109L42.3308 460.43L62.4259 448.83L74.7938 470.251H213.537L213.529 470.246L253.457 447.054L268.671 455.838L243.707 470.252H246.898L269.469 457.221V470.252H271.064V457.221L272.501 458.05L271.384 456.116L271.065 455.563L269.47 452.8V454.459L255.049 446.133L270.906 436.923V453.63L269.47 452.801L270.587 454.736L270.907 455.289L272.507 458.052V456.394L295.078 469.425L293.641 470.254H299.704L298.268 469.425L312.295 461.325L312.276 470.253H313.818L313.838 460.433L333.933 448.833L346.301 470.254H485.037L485.029 470.249L524.957 447.057L540.171 455.841L515.207 470.252H518.398L540.968 457.221V470.252H542.568V457.221L544.005 458.05L542.888 456.116L542.569 455.563L540.969 452.8V454.459L526.548 446.133L542.405 436.923V453.63L540.969 452.801L542.086 454.736L542.405 455.289L544.005 458.052V325.703L542.568 326.532V300.469L544.005 301.298V168.952L542.405 171.715L542.086 172.268L540.969 174.203L542.405 173.374V189.606L526.849 180.697L540.968 172.545V174.204L542.568 171.441L542.887 170.888L544.004 168.954L542.567 169.783V143.721L544.004 144.55V12.204L542.567 13.033V0.00195312H540.967V13.033L518.397 0.00195312H515.207L540.171 14.4149L525.247 23.031L485.036 0.00195312H346.295L333.927 21.423L313.791 9.79797L313.812 -0.0020752H312.27L312.251 8.90393L298.261 0.826904L299.697 -0.0020752H293.634L295.071 0.826904L272.5 13.8579V12.2L271.063 13.0289V-0.0020752H269.468V13.0289L246.897 -0.0020752H243.707L268.671 14.411L253.748 23.027L213.537 -0.0020752H210.954L231.624 35.798L215.707 44.9869L190.314 0.766968H210.954V-0.00402832H74.7948L62.4269 21.417L42.2909 9.79199L42.3119 -0.00805664H40.7699L40.7509 8.89795L26.7609 0.820923L28.1969 -0.00805664H22.1339L23.5708 0.820923L0.999878 13.8519V16.615L25.9639 31.028V2.2019L40.7468 10.7369L40.6469 56.47L0.99585 33.761V35.538L39.8639 57.798H0.99585V59.3979H41.4429L51.8949 77.598H0.994873V79.14H52.7799L78.6158 124.131L63.0068 133.143L42.3369 97.343H42.0898C42.0738 97.332 42.0619 97.318 42.0459 97.309C41.9284 97.241 41.795 97.2053 41.6593 97.2053C41.5236 97.2053 41.3903 97.241 41.2728 97.309L41.2169 97.342H0.996826V98.942H38.4698L0.996826 120.708V122.492L40.8868 99.322L40.7869 145.977L25.9589 154.538V125.712L0.994873 140.125V142.888L23.5659 155.919L22.1289 156.748L23.5659 157.577L0.994873 170.608V173.371L25.9589 187.784V158.958L40.7418 167.493L40.6418 213.226L0.990845 190.517V192.294L39.8589 214.554H0.990845V216.154H41.4379L51.8899 234.354H0.989868V235.896H52.7749L78.6108 280.887L63.0018 289.9L42.3319 254.1H42.0848C42.0688 254.089 42.0569 254.075 42.0409 254.066C41.9234 253.998 41.7901 253.962 41.6544 253.962C41.5187 253.962 41.3853 253.998 41.2678 254.066L41.2119 254.099H0.991821V255.699H38.4648L0.991821 277.465V279.249L40.8818 256.08L40.7819 302.735L25.9539 311.296V282.47L0.989868 296.883V299.646L23.5609 312.677L22.1239 313.506L23.5609 314.335L0.989868 327.366V330.129L25.9539 344.542V315.716L40.7368 324.251L40.6368 369.984L0.98584 347.275V349.052L39.8539 371.313H0.98584V372.913H41.4329L51.8849 391.113H0.984863V392.655H52.7699L78.6058 437.646L62.9968 446.658L42.3269 410.858H42.0789C42.0639 410.847 42.0509 410.834 42.0349 410.824C41.9175 410.756 41.7841 410.72 41.6483 410.72C41.5126 410.72 41.3793 410.756 41.2618 410.824L41.2058 410.857H0.98584V412.457H38.4589L0.98584 434.223V436.007L40.8759 412.837L40.7759 459.492L25.9479 468.053V439.227L0.983887 453.64V456.403L23.5708 469.422ZM24.3708 311.29L1.8009 298.259L24.3708 285.228V311.29ZM24.3708 341.774L1.8009 328.743L24.3708 315.712V341.774ZM40.7909 304.574L40.7528 322.408L26.7628 314.331L28.1989 313.502L26.7628 312.673L40.7909 304.574ZM24.3708 154.54L1.8009 141.509L24.3708 128.478V154.54ZM24.3708 185.024L1.8009 171.993L24.3708 158.962V185.024ZM40.7909 147.824L40.7528 165.658L26.7628 157.581L28.1989 156.752L26.7628 155.923L40.7909 147.824ZM24.3708 28.274L1.8009 15.2429L24.3708 2.21191V28.274ZM54.5659 392.648H75.6509L95.8759 427.679L79.9589 436.869L54.5659 392.648ZM133.722 374.424L134.813 376.314L133.722 374.424V376.082L119.886 368.094L135.159 359.223V375.252L133.722 374.424ZM109.502 294.524H135.158V312.724H98.6869L80.7539 281.495L96.6738 272.304L109.502 294.523L110.423 292.923L98.0559 271.502L118.056 259.954L135.156 269.748V292.923H110.421L109.502 294.524ZM133.722 252.575L135.158 251.746V267.983L119.602 259.074L133.722 250.922V252.581L135.158 250.093L134.838 250.646L133.722 252.575ZM98.2389 158.292L108.833 176.741L108.951 176.674L96.6738 197.938L80.7509 188.745L98.2389 158.292ZM79.4159 187.974L63.8159 178.965L76.1989 157.517H96.9088L79.4159 187.974ZM97.2578 200.117L116.17 211.036L78.2318 233.072L97.2578 200.117ZM117.71 211.925L132.924 220.709L107.96 235.122L132.924 249.535L118 258.151L77.7819 235.117L117.71 211.925ZM116.455 259.042L97.2549 270.125L78.2069 237.146L116.455 259.042ZM133.722 222.09V248.153L111.151 235.122L133.722 222.09ZM98.2389 315.042L108.833 333.491L108.951 333.424L96.6738 354.688L80.7509 345.495L98.2389 315.042ZM79.4159 344.724L63.8159 335.715L76.1989 314.267H96.9088L79.4159 344.724ZM97.2578 356.867L116.758 368.124L77.6459 390.842L97.2578 356.867ZM135.158 314.267V332.467H110.025L99.5719 314.267H135.158ZM135.158 334.067V357.437L118.345 367.203L98.0548 355.489L110.422 334.068L109.778 332.952L110.423 334.068L135.158 334.067ZM133.722 404.906L111.151 391.875L133.722 378.844V404.906ZM132.922 406.288L117.67 415.094L78.0399 392.394L118.293 369.014L132.922 377.46L107.958 391.873L132.922 406.288ZM116.122 415.988L97.2549 426.883L78.5378 394.463L116.122 415.988ZM54.5579 391.106L79.9519 346.884L95.8718 356.075L75.6469 391.106H54.5579ZM42.7828 372.136L63.0099 337.101L78.6158 346.112L53.2279 390.325L42.7828 372.136ZM42.2828 325.136L61.6249 336.303L42.1888 369.967L42.2828 325.136ZM61.6249 290.698L42.3319 301.837L42.4248 257.442L61.6249 290.698ZM74.7909 313.498L62.4229 334.919L42.2869 323.294L42.3279 303.679L62.4229 292.079L74.7909 313.498ZM79.4109 282.269L96.9069 312.73H76.1929L63.8069 291.283L79.4109 282.269ZM54.5588 235.894H75.6439L95.8689 270.925L79.9519 280.115L54.5588 235.894ZM54.5588 234.352L79.9539 190.13L95.8728 199.321L75.6478 234.352H54.5588ZM42.7838 215.382L63.0109 180.348L78.6168 189.359L53.2289 233.572L42.7838 215.382ZM42.2838 168.382L61.6259 179.549L42.1898 213.213L42.2838 168.382ZM61.6259 133.944L42.3369 145.083L42.4298 100.688L61.6259 133.944ZM74.7919 156.744L62.4238 178.165L42.2878 166.54L42.3289 146.925L62.4238 135.325L74.7919 156.744ZM79.4119 125.515L96.9069 155.983H76.1929L63.8069 134.532L79.4119 125.515ZM54.5598 79.14H75.6439L95.8689 114.171L79.9519 123.361L54.5598 79.14ZM132.917 92.782L117.993 101.398L77.7749 78.364L117.707 55.183L132.921 63.967L107.957 78.3799L132.917 92.782ZM111.144 78.369L133.715 65.338V91.4009L111.144 78.369ZM78.2239 76.3199L97.2509 43.3649L116.163 54.2839L78.2239 76.3199ZM116.447 102.291L97.2468 113.374L78.2069 80.395L116.447 102.291ZM54.5469 77.598L79.8258 33.306L95.8668 42.567L75.6418 77.598H54.5469ZM61.6239 22.798L42.1879 56.462L42.2819 11.631L61.6239 22.798ZM63.0059 23.5979L78.4908 32.538L53.2198 76.8149L42.7788 58.632L63.0059 23.5979ZM96.6228 0.768921L79.2819 31.153L63.8038 22.2169L76.1869 0.768921H96.6228ZM97.9569 1.54395L108.727 20.299L96.6659 41.189L80.6179 31.924L97.9569 1.54395ZM135.15 18.97H109.747L99.2948 0.77002H135.155L135.15 18.97ZM135.15 43.2579L117.75 53.363L98.0498 41.986L110.417 20.5649L109.98 19.809L110.417 20.5649H135.152L135.15 43.2579ZM133.714 60.92L134.83 62.8539L135.15 63.407L133.714 60.9189V62.577L119.293 54.251L135.15 45.041V61.748L133.714 60.92ZM135.15 111.229L119.594 102.32L133.714 94.168V95.827L135.15 93.339L134.83 93.892L133.714 95.827L135.15 94.998V111.229ZM135.15 155.977H98.6788L80.7458 124.748L96.6659 115.557L109.494 137.776L110.415 136.176L98.0479 114.755L118.048 103.207L135.148 113.001V136.183H110.413L109.492 137.783H135.148L135.15 155.977ZM135.15 175.721H110.017L99.5648 157.521H135.15V175.721ZM135.15 200.009L117.75 210.114L98.0498 198.737L110.417 177.316L109.773 176.2L110.418 177.316H135.153L135.15 200.009ZM136.75 375.25V358.294L176.9 334.973L176.8 380.95L161.71 389.662V360.836L136.75 375.25ZM160.118 363.601V389.664L137.548 376.633L160.118 363.601ZM160.118 394.085V420.148L137.548 407.117L160.118 394.085ZM163.947 391.874L162.51 391.045L176.798 382.795L176.76 400.931L162.509 392.704L163.947 391.874ZM136.747 356.51V334.066H175.387L136.747 356.51ZM136.747 332.471V314.271H188.532L214.368 359.263L198.759 368.275L178.089 332.475L136.747 332.471ZM245.247 372.9H270.907V391.1H234.436L216.503 359.871L232.423 350.68L245.251 372.898L246.172 371.298L233.807 349.883L253.807 338.336L270.907 348.13V371.304H246.172L245.247 372.9ZM269.467 296.045L270.584 297.98L270.904 298.533L271.216 299.073L271.063 298.808L269.468 296.045V297.704L255.047 289.383L270.904 280.173V296.88L269.467 296.045ZM245.247 216.145H270.907V234.345H234.436L216.503 203.116L232.423 193.925L245.251 216.143L246.172 214.543L233.807 193.136L253.807 181.589L270.907 191.383V214.557H246.172L245.247 216.145ZM269.467 139.29L270.584 141.225L270.904 141.778L271.181 142.257L271.063 142.057L269.468 139.294V140.953L255.047 132.627L270.904 123.417V140.124L269.467 139.29ZM198.176 56.947L210.544 78.368L198.176 99.7889L178.04 88.1639L178.081 68.549L198.176 56.947ZM178.085 66.705L178.178 22.3099L197.378 55.566L178.085 66.705ZM198.176 213.698L210.544 235.119L198.176 256.54L178.04 244.915L178.081 225.3L198.176 213.698ZM178.085 223.456L178.178 179.061L197.378 212.317L178.085 223.456ZM190.311 314.266H211.396L231.621 349.297L215.704 358.487L190.311 314.266ZM232.653 391.099H211.939L199.556 369.651L215.162 360.64L232.653 391.099ZM213.959 315.515L252.199 337.415L232.999 348.498L213.959 315.515ZM190.307 312.724L215.701 268.502L231.621 277.693L211.396 312.724H190.307ZM233.983 236.666L244.577 255.115L244.695 255.047L232.418 276.311L216.495 267.118L233.983 236.666ZM215.16 266.347L199.56 257.338L211.943 235.89H232.653L215.16 266.347ZM233.002 278.49L251.914 289.409L213.976 311.445L233.002 278.49ZM188.977 311.943L178.532 293.754L198.759 258.72L214.365 267.731L188.977 311.943ZM177.942 291.586L178.036 246.755L197.378 257.922L177.942 291.586ZM199.557 212.901L215.163 203.89L232.653 234.348H211.939L199.557 212.901ZM190.311 157.515H211.396L231.621 192.546L215.704 201.736L190.311 157.515ZM213.959 158.764L252.199 180.664L232.999 191.747L213.959 158.764ZM211.395 155.972H190.317L215.706 111.751L231.623 120.941L211.395 155.972ZM233.002 121.739L251.914 132.658L213.976 154.694L233.002 121.739ZM188.981 155.198L178.532 136.998L198.759 101.964L214.368 110.976L188.981 155.198ZM177.942 134.835L178.036 90.004L197.378 101.171L177.942 134.835ZM211.942 79.1349H232.652L215.165 109.592L199.559 100.582L211.942 79.1349ZM233.986 79.9089L244.58 98.358L244.698 98.29L232.421 119.554L216.5 110.362L233.986 79.9089ZM235.32 79.1349H270.907V97.335H245.774L235.32 79.1349ZM270.907 98.9429V121.636L253.507 131.736L233.807 120.364L246.174 98.9429L245.53 97.827L246.175 98.9429H270.907ZM269.471 169.781L246.9 156.75L269.471 143.719V169.781ZM268.671 171.163L253.747 179.783L213.528 156.749L253.456 133.557L268.67 142.341L243.707 156.751L268.671 171.163ZM270.907 235.897V254.097H245.774L235.322 235.897H270.907ZM270.907 255.697V278.383L253.507 288.488L233.807 277.115L246.174 255.694L245.53 254.578L246.175 255.694L270.907 255.697ZM269.471 326.535L246.9 313.504L269.471 300.473V326.535ZM268.671 327.917L253.748 336.533L213.529 313.499L253.457 290.307L268.671 299.091L243.707 313.501L268.671 327.917ZM270.906 392.65V410.85H245.773L235.321 392.65H270.906ZM244.699 411.806L232.422 433.07L216.476 423.864L233.987 393.424L244.581 411.874L244.699 411.806ZM215.14 423.093L199.559 414.093L211.942 392.645H232.652L215.14 423.093ZM198.178 413.3L178.307 401.822L178.349 381.906L198.182 370.455L210.55 391.876L198.178 413.3ZM178.348 380.065L178.44 336.271L197.38 369.076L178.348 380.065ZM197.38 414.682L178.206 447.892L178.298 403.665L197.38 414.682ZM136.751 312.733V294.533H177.198L187.65 312.733H136.751ZM163.951 235.133L162.514 234.304L176.542 226.204L176.504 244.038L162.514 235.961L163.951 235.133ZM136.751 292.94V270.679L175.62 292.94H136.751ZM136.751 268.902V251.757L161.715 266.17V237.344L176.498 245.879L176.398 291.611L136.751 268.902ZM137.551 250.375L160.121 237.344V263.407L137.551 250.375ZM136.751 218.509V200.875L176.641 177.706L176.541 224.361L161.713 232.922V204.096L136.751 218.509ZM160.119 206.86V232.923L137.549 219.892L160.119 206.86ZM136.751 199.092V177.326H174.224L136.751 199.092ZM136.751 175.73V157.53H188.536L214.372 202.522L198.763 211.534L178.093 175.734H177.845C177.83 175.724 177.817 175.71 177.801 175.7C177.683 175.632 177.55 175.596 177.414 175.596C177.279 175.596 177.145 175.632 177.028 175.7L176.972 175.732L136.751 175.73ZM136.751 155.986V137.786H177.198L187.65 155.986H136.751ZM176.641 20.955L176.541 67.61L161.713 76.171V47.345L136.749 61.7579V44.124L176.641 20.955ZM136.751 42.3409V20.575H174.225L136.751 42.3409ZM160.119 50.1089V76.1719L137.549 63.1409L160.119 50.1089ZM160.119 80.593V106.656L137.549 93.6249L160.119 80.593ZM163.948 78.382L162.511 77.553L176.539 69.4529L176.501 87.283L162.511 79.2059L163.948 78.377V78.382ZM136.748 136.189V113.928L175.616 136.189H136.748ZM136.748 112.151V95.006L161.712 109.419V80.5829L176.495 89.118L176.395 134.85L136.748 112.151ZM136.748 92.243V90.584L135.312 91.413V65.351L136.748 66.1799V64.5209L159.319 77.5519L157.882 78.381L159.319 79.21L136.748 92.243ZM214.369 45.77L198.76 54.782L178.09 18.9819H177.842C177.827 18.9719 177.814 18.958 177.798 18.948C177.68 18.88 177.547 18.8441 177.411 18.8441C177.276 18.8441 177.142 18.88 177.025 18.948L176.969 18.98H136.749V0.779907H188.534L214.369 45.77ZM232.653 77.611H211.939L199.556 56.163L215.162 47.152L232.653 77.611ZM252.199 23.928L232.999 35.011L213.956 2.02698L252.199 23.928ZM253.799 24.845L270.899 34.639V57.813H246.164L245.243 59.413H270.907V77.613H234.436L216.503 46.384L232.423 37.1929L245.251 59.412L246.172 57.812L233.807 36.3829L253.799 24.845ZM271.33 14.2279L270.901 14.9709L270.581 15.5239L269.464 17.459L270.9 16.63V32.8619L255.343 23.953L269.463 15.8009V17.46L271.058 14.6969L271.33 14.2279ZM272.496 144.554V142.896L295.067 155.927L293.63 156.756L295.067 157.585L272.496 170.616V168.958L270.896 171.721L270.576 172.274L269.459 174.209L270.895 173.38V189.612L255.339 180.703L269.459 172.551V174.21L271.054 171.447L271.373 170.894L272.49 168.96L271.053 169.789V143.727L272.496 144.554ZM272.496 296.883V279.243L312.386 256.074L312.286 302.729L297.458 311.29V282.464L272.496 296.883ZM295.864 285.234V311.296L273.294 298.265L295.864 285.234ZM295.864 315.718V341.78L273.294 328.749L295.864 315.718ZM299.693 313.507L298.257 312.678L312.284 304.578L312.247 322.412L298.257 314.335L299.693 313.506V313.507ZM272.493 277.466V255.7H309.966L272.493 277.466ZM272.493 254.105V235.905H324.278L350.114 280.896L334.505 289.909L313.835 254.109H313.588C313.572 254.098 313.56 254.084 313.544 254.075C313.426 254.007 313.293 253.971 313.157 253.971C313.022 253.971 312.888 254.007 312.771 254.075L312.715 254.108L272.493 254.105ZM405.219 374.423L406.31 376.313L405.219 374.423V376.081L390.798 367.755L406.655 358.544V375.251L405.219 374.423ZM408.25 375.252V357.618L448.14 334.449L448.04 381.104L433.212 389.665V360.839L408.25 375.252ZM431.618 363.603V389.666L409.048 376.635L431.618 363.603ZM431.618 394.087V420.15L409.048 407.119L431.618 394.087ZM435.447 391.876L434.011 391.047L448.038 382.947L448.001 400.781L434.011 392.704L435.447 391.876ZM408.247 355.835V334.069H445.72L408.247 355.835ZM408.247 332.474V314.274H460.032L485.868 359.266L470.259 368.278L449.589 332.478H449.341C449.326 332.468 449.313 332.454 449.297 332.444C449.179 332.376 449.046 332.34 448.91 332.34C448.775 332.34 448.641 332.376 448.524 332.444L448.467 332.477L408.247 332.474ZM516.747 372.903H542.407V391.103H505.937L488.004 359.874L503.924 350.683L516.752 372.901L517.673 371.301L505.307 349.883L525.307 338.336L542.407 348.13V371.304H517.672L516.747 372.903ZM540.169 327.914L525.245 336.53L485.026 313.496L524.954 290.304L540.168 299.088L515.207 313.501L540.169 327.914ZM518.396 313.501L540.966 300.47V326.532L518.396 313.501ZM469.676 56.954L482.043 78.3749L469.676 99.796L449.54 88.171L449.581 68.556L469.676 56.954ZM449.585 66.712L449.678 22.312L468.878 55.5679L449.585 66.712ZM448.139 20.949L448.039 67.6039L433.211 76.165V47.339L408.247 61.752V44.118L448.139 20.949ZM408.249 42.335V20.569H445.722L408.249 42.335ZM408.249 112.145V94.999L433.213 109.412V80.5829L447.996 89.118L447.896 134.85L408.249 112.145ZM447.117 136.183H408.249V113.923L447.117 136.183ZM435.447 78.376L434.011 77.5469L448.038 69.447L448.001 87.283L434.011 79.2059L435.447 78.377V78.376ZM409.047 93.618L431.617 80.587V106.65L409.047 93.618ZM431.617 50.103V76.166L409.047 63.1349L431.617 50.103ZM448.695 137.779L459.147 155.979H408.247V137.779H448.695ZM408.248 218.503V200.869L448.138 177.7L448.038 224.355L433.21 232.916V204.09L408.248 218.503ZM431.616 206.854V232.917L409.046 219.886L431.616 206.854ZM431.616 237.338V263.401L409.046 250.37L431.616 237.338ZM435.445 235.127L434.009 234.298L448.036 226.198L447.999 244.032L434.009 235.955L435.445 235.127ZM408.245 199.086V177.32H445.718L408.245 199.086ZM408.245 175.724V157.524H460.03L485.866 202.516L470.257 211.528L449.587 175.728H449.339C449.324 175.718 449.311 175.704 449.295 175.694C449.177 175.626 449.044 175.59 448.908 175.59C448.773 175.59 448.639 175.626 448.522 175.694L448.466 175.726L408.245 175.724ZM460.477 311.956L450.029 293.756L470.256 258.722L485.865 267.734L460.477 311.956ZM461.807 314.272H482.892L503.117 349.303L487.2 358.493L461.807 314.272ZM504.149 391.105H483.435L471.052 369.657L486.658 360.646L504.149 391.105ZM485.455 315.521L523.695 337.421L504.495 348.504L485.455 315.521ZM469.677 213.704L482.044 235.125L469.677 256.546L449.541 244.921L449.582 225.306L469.677 213.704ZM449.586 223.462L449.679 179.062L468.879 212.318L449.586 223.462ZM483.441 235.897H504.152L486.665 266.355L471.059 257.345L483.441 235.897ZM487.206 268.509L503.123 277.699L482.898 312.73H461.817L487.206 268.509ZM449.444 291.592L449.538 246.761L468.88 257.928L449.444 291.592ZM482.898 155.983H461.817L487.206 111.762L503.123 120.952L482.898 155.983ZM504.505 121.75L523.417 132.669L485.478 154.705L504.505 121.75ZM486.665 109.608L471.059 100.598L483.442 79.1509H504.153L486.665 109.608ZM460.483 155.208L450.034 137.008L470.261 101.974L485.87 110.986L460.483 155.208ZM449.444 134.844L449.538 90.0129L468.88 101.18L449.444 134.844ZM471.059 56.1589L486.665 47.1479L504.155 77.606H483.441L471.059 56.1589ZM505.486 79.923L516.08 98.3719L516.198 98.304L503.921 119.568L488.001 110.376L505.486 79.923ZM506.82 79.149H542.407V97.3489H517.274L506.82 79.149ZM542.404 98.949V121.642L525.004 131.742L505.307 120.364L517.674 98.9429L517.03 97.827L517.674 98.9429L542.404 98.949ZM540.17 142.343L516.542 155.983H486.348L524.957 133.558L540.17 142.343ZM523.701 180.677L504.501 191.76L485.458 158.776L523.701 180.677ZM503.123 192.558L487.206 201.748L461.813 157.528H482.898L503.123 192.558ZM504.155 234.358H483.441L471.058 212.91L486.664 203.899L504.155 234.358ZM505.486 236.675L516.08 255.124L516.198 255.056L503.921 276.32L488.001 267.129L505.486 236.675ZM504.505 278.5L523.417 289.419L485.479 311.455L504.505 278.5ZM542.404 392.651V410.851H517.271L506.819 392.651H542.404ZM516.197 411.807L503.92 433.071L487.988 423.871L505.488 393.423L516.082 411.873L516.197 411.807ZM486.653 423.107L471.058 414.107L483.441 392.659H504.151L486.653 423.107ZM469.677 413.307L449.541 401.682L449.582 382.067L469.677 370.467L482.044 391.888L469.677 413.307ZM449.586 380.222L449.679 335.822L468.879 369.078L449.586 380.222ZM468.879 414.688L449.443 448.352L449.537 403.521L468.879 414.688ZM408.25 312.739V294.539H448.697L459.149 312.739H408.25ZM408.25 292.939V270.678L447.118 292.939H408.25ZM408.25 268.901V251.755L433.214 266.168V237.342L447.997 245.877L447.897 291.609L408.25 268.901ZM408.25 248.992V247.333L406.65 250.096L406.33 250.649L405.214 252.584L406.65 251.755V267.983L391.094 259.074L405.214 250.922V252.581L406.809 249.818L407.128 249.265L408.245 247.33L406.808 248.159V222.097L408.245 222.926L407.128 220.991L406.809 220.438L405.214 217.675V219.333L390.793 211.007L406.65 201.796V218.503L405.214 217.674L406.33 219.609L406.65 220.162L408.25 222.925V221.266L430.821 234.297L429.384 235.126L430.821 235.955L408.25 248.992ZM380.999 137.783H406.655V155.983H370.184L352.251 124.754L368.171 115.563L380.999 137.782L381.92 136.182L369.553 114.761L389.553 103.213L406.653 113.008V136.183H381.918L380.999 137.783ZM404.421 92.7939L389.497 101.41L349.279 78.376L389.207 55.183L404.421 63.967L379.457 78.3799L404.421 92.7939ZM382.648 78.381L405.219 65.35V91.413L382.648 78.381ZM350.121 124.144L334.512 133.156L313.842 97.356H313.595C313.579 97.345 313.567 97.331 313.551 97.322C313.433 97.2539 313.3 97.2181 313.164 97.2181C313.029 97.2181 312.895 97.2539 312.778 97.322L312.722 97.355H272.502V79.155H324.287L350.121 124.144ZM272.5 140.133V122.493L312.39 99.324L312.29 145.979L297.462 154.54V125.714L272.5 140.133ZM295.868 128.484V154.546L273.298 141.515L295.868 128.484ZM295.868 158.968V185.03L273.298 171.999L295.868 158.968ZM299.697 156.757L298.261 155.928L312.288 147.828L312.251 165.662L298.261 157.585L299.697 156.757ZM272.497 120.716V98.9429H309.97L272.497 120.716ZM333.927 292.083L346.295 313.504L333.927 334.925L313.791 323.3L313.832 303.685L333.927 292.083ZM313.836 301.84L313.929 257.445L333.129 290.701L313.836 301.84ZM380.999 294.531H406.655V312.731H370.184L352.251 281.502L368.171 272.311L380.999 294.53L381.92 292.93L369.553 271.509L389.553 259.961L406.653 269.756V292.93H381.918L380.999 294.531ZM404.421 249.542L389.497 258.158L349.279 235.124L389.207 211.932L404.421 220.716L379.457 235.129L404.421 249.542ZM382.648 235.129L405.219 222.098V248.161L382.648 235.129ZM369.736 158.299L380.33 176.748L380.448 176.681L368.171 197.945L352.248 188.752L369.736 158.299ZM333.927 135.333L346.295 156.754L333.927 178.175L313.791 166.55L313.832 146.935L333.927 135.333ZM313.836 145.09L313.929 100.695L333.129 133.951L313.836 145.09ZM347.691 157.525H368.401L350.912 187.981L335.312 178.972L347.691 157.525ZM335.308 134.535L350.914 125.525L368.407 155.983H347.693L335.308 134.535ZM368.754 200.125L387.666 211.044L349.728 233.08L368.754 200.125ZM387.954 259.051L368.754 270.134L349.707 237.147L387.954 259.051ZM369.739 315.05L380.333 333.499L380.451 333.431L368.174 354.696L352.254 345.504L369.739 315.05ZM406.658 314.276V332.476H381.525L371.073 314.276H406.658ZM406.658 334.076V356.769L389.258 366.874L369.558 355.497L381.925 334.076L381.28 332.96L381.925 334.076H406.658ZM387.669 367.797L349.731 389.833L368.757 356.878L387.669 367.797ZM347.15 391.112H326.069L351.458 346.891L367.375 356.081L347.15 391.112ZM350.917 344.736L335.311 335.726L347.694 314.278H368.404L350.917 344.736ZM335.307 291.283L350.913 282.273L368.403 312.731H347.689L335.307 291.283ZM326.061 235.897H347.146L367.371 270.928L351.454 280.118L326.061 235.897ZM326.061 234.355L351.455 190.133L367.375 199.324L347.15 234.355H326.061ZM324.731 233.574L314.284 215.383L334.511 180.349L350.117 189.36L324.731 233.574ZM313.696 213.217L313.79 168.386L333.132 179.553L313.696 213.217ZM326.065 79.147H347.15L367.375 114.178L351.458 123.368L326.065 79.147ZM349.713 80.3959L387.953 102.296L368.753 113.379L349.713 80.3959ZM326.066 77.6039L351.266 33.275L367.366 42.575L347.141 77.606L326.066 77.6039ZM368.756 43.371L387.668 54.29L349.729 76.326L368.756 43.371ZM406.656 157.522V175.722H381.523L371.071 157.522H406.656ZM406.656 177.322V200.015L389.256 210.12L369.556 198.743L381.923 177.322L381.278 176.206L381.923 177.322H406.656ZM405.22 404.911L382.649 391.88L405.22 378.849V404.911ZM404.42 406.293L389.496 414.909L349.278 391.875L389.207 368.683L404.421 377.467L379.457 391.88L404.42 406.293ZM387.951 415.801L368.751 426.884L349.707 393.897L387.951 415.801ZM367.373 427.683L351.456 436.873L326.063 392.652H347.148L367.373 427.683ZM324.732 390.335L314.284 372.14L334.511 337.105L350.12 346.117L324.732 390.335ZM313.693 369.972L313.787 325.141L333.129 336.308L313.693 369.972ZM272.499 234.359V216.159H312.945L323.397 234.359H272.499ZM272.499 214.559V192.299L311.367 214.559H272.499ZM272.499 190.521V173.375L297.463 187.788V158.962L312.246 167.497L312.146 213.23L272.499 190.521ZM272.499 35.548L311.367 57.808H272.499V35.548ZM295.867 28.274L273.297 15.2429L295.867 2.21191V28.274ZM312.246 10.7469L312.146 56.48L272.495 33.7709V16.625L297.459 31.038V2.21191L312.246 10.7469ZM312.946 59.403L323.398 77.603H272.498V59.403H312.946ZM333.129 22.803L313.693 56.467L313.787 11.636L333.129 22.803ZM334.511 23.6029L349.933 32.5029L324.733 76.827L314.285 58.6329L334.511 23.6029ZM367.976 0.773926L350.722 31.121L335.309 22.2209L347.692 0.772949L367.976 0.773926ZM369.309 1.54993L380.154 20.437L368.169 41.1949L352.056 31.895L369.309 1.54993ZM406.654 18.975H381.094L370.642 0.774902H406.654V18.975ZM406.654 43.2629L389.254 53.368L369.554 41.991L381.921 20.5699L381.446 19.7479L381.921 20.5699H406.656L406.654 43.2629ZM406.654 63.413L408.254 66.176V64.517L430.825 77.548L429.388 78.377L430.825 79.2059L408.254 92.2369V90.5779L406.654 93.3409L406.334 93.894L405.218 95.829L406.654 94.9999V111.232L391.097 102.323L405.217 94.171V95.83L406.812 93.067L407.131 92.514L408.248 90.579L406.811 91.408V65.3459L408.248 66.175L407.131 64.2399L406.812 63.687L405.217 60.924V62.582L390.796 54.256L406.653 45.045V61.752L405.217 60.923L406.333 62.8569L406.653 63.41L406.654 63.413ZM460.034 0.773926L485.87 45.7659L470.261 54.778L449.591 18.9779H449.343C449.328 18.9679 449.315 18.954 449.299 18.944C449.182 18.8759 449.048 18.8401 448.912 18.8401C448.777 18.8401 448.643 18.8759 448.526 18.944L448.47 18.976H408.25V0.776001L460.034 0.773926ZM482.897 0.773926L503.122 35.8049L487.205 44.994L461.812 0.773926H482.897ZM523.697 23.924L504.497 35.007L485.454 2.02295L523.697 23.924ZM525.297 24.8409L542.397 34.6349V57.809H517.662L516.741 59.4089H542.407V77.6089H505.937L488.004 46.3799L503.924 37.189L516.752 59.408L517.673 57.808L505.307 36.3829L525.297 24.8409ZM542.828 14.224L542.399 14.9669L542.08 15.52L540.963 17.455L542.399 16.626V32.858L526.843 23.949L540.963 15.797V17.4559L542.563 14.693L542.828 14.224ZM540.963 139.299V140.958L526.542 132.632L542.399 123.422V140.129L540.963 139.3L542.08 141.235L542.399 141.788L542.676 142.267L542.558 142.067L540.963 139.299ZM540.963 169.783L518.393 156.752L540.963 143.721V169.783ZM525.242 179.783L486.378 157.525H516.537L540.165 171.167L525.242 179.783ZM542.399 234.358H505.929L487.996 203.129L503.916 193.938L516.744 216.156L517.665 214.556L505.307 193.136L525.307 181.589L542.407 191.383V214.557H517.672L516.751 216.157H542.407L542.399 234.358ZM542.399 254.102H517.267L506.815 235.902H542.407L542.399 254.102ZM542.399 278.389L524.999 288.494L505.307 277.115L517.674 255.694L517.03 254.578L517.674 255.694H542.407L542.399 278.389ZM542.558 298.814L540.958 296.051V297.71L526.547 289.383L542.404 280.173V296.88L540.968 296.051L542.085 297.986L542.404 298.539L542.717 299.079L542.558 298.814ZM542.399 328.469L542.08 329.022L540.963 330.957L542.399 330.128V346.36L526.843 337.451L540.962 329.299V330.958L542.562 328.195L542.832 327.727L542.399 328.469ZM505.299 433.869L517.666 412.448L517.022 411.332L517.666 412.448H542.407V435.14L525.007 445.245L505.299 433.869ZM485.475 468.206L504.501 435.251L523.413 446.17L485.475 468.206ZM461.775 469.484L487.189 425.257L503.118 434.457L482.898 469.483L461.775 469.484ZM460.444 468.705L450.028 450.516L470.256 415.48L485.856 424.485L460.444 468.705ZM408.25 451.283H448.695L459.118 469.483H408.25V451.283ZM408.25 427.427L447.118 449.688H408.25V427.427ZM408.25 408.504L433.214 422.917V394.083L447.997 402.618L447.897 448.35L408.246 425.641L408.25 408.504ZM408.25 404.082L406.65 406.845L406.33 407.398L405.214 409.333L406.65 408.504V424.736L391.094 415.827L405.214 407.675V409.334L406.809 406.571L407.128 406.018L408.245 404.083L406.808 404.912V378.849L408.245 379.678L407.128 377.743L406.809 377.19L406.355 376.403L406.655 376.915L408.255 379.678V378.019L430.826 391.05L429.389 391.879L430.826 392.708L408.255 405.739L408.25 404.082ZM370.184 469.482L352.251 438.253L368.171 429.062L380.999 451.283L381.92 449.683L369.553 428.262L389.553 416.714L406.653 426.508V449.683H381.918L380.997 451.283H406.653V469.483L370.184 469.482ZM335.307 448.033L350.913 439.023L368.407 469.483H347.693L335.307 448.033ZM313.836 458.583L313.929 414.188L333.129 447.444L313.836 458.583ZM273.298 455.005L295.868 441.974V468.036L273.298 455.005ZM272.498 435.99L312.388 412.821L312.288 459.476L297.46 468.037V439.211L272.496 453.624L272.498 435.99ZM272.498 412.441H309.971L272.498 434.207V412.441ZM272.498 392.641H324.282L350.119 437.633L334.51 446.645L313.84 410.845H313.592C313.578 410.833 313.563 410.822 313.548 410.811C313.431 410.743 313.297 410.707 313.161 410.707C313.026 410.707 312.892 410.743 312.775 410.811L312.719 410.844H272.499L272.498 392.641ZM272.498 372.897H312.944L323.396 391.097H272.496L272.498 372.897ZM272.498 349.041L311.366 371.301H272.498V349.041ZM272.498 330.118L297.462 344.531V315.705L312.245 324.24L312.145 369.973L272.494 347.264L272.498 330.118ZM272.498 325.696L271.061 326.525V300.462L272.498 301.291V299.633L295.069 312.664L293.632 313.493L295.069 314.322L272.498 327.353V325.696ZM270.898 328.459L270.578 329.012L269.461 330.947L270.897 330.118V346.35L255.341 337.441L269.461 329.289V330.948L271.056 328.185L271.327 327.717L270.898 328.459ZM233.798 433.859L246.165 412.438L245.521 411.322L246.166 412.438H270.907V435.13L253.507 445.235L233.798 433.859ZM213.974 468.195L233 435.24L251.912 446.159L213.974 468.195ZM190.229 469.474L215.675 425.238L231.619 434.443L211.398 469.483L190.229 469.474ZM188.894 468.7L178.492 450.583L198.761 415.476L214.344 424.476L188.894 468.7ZM136.75 451.283H177.113L187.565 469.483H136.75V451.283ZM136.75 427.805L174.959 449.688H136.75V427.805ZM136.75 408.505L161.714 422.918V394.083L176.758 402.769L176.658 448.877L136.747 426.019L136.75 408.505ZM135.314 378.85L136.75 379.679V378.02L159.321 391.051L157.884 391.88L159.321 392.709L136.75 405.74V404.081L135.339 406.524L135.632 406.016L136.749 404.081L135.313 404.91L135.314 378.85ZM136.75 222.929L135.633 220.994L135.314 220.441L133.714 217.678V219.336L119.293 211.01L135.15 201.8V218.507L133.714 217.678L134.83 219.613L135.15 220.166L136.75 222.929V221.27L159.321 234.301L157.884 235.13L159.321 235.959L136.75 248.983V247.324L135.314 248.153V222.091L136.75 222.929ZM135.278 406.629L135.155 406.842L134.835 407.395L133.719 409.33L135.155 408.501V425.111L119.27 416.011L133.718 407.67V409.329L135.278 406.629ZM98.6838 469.483L80.7509 438.254L96.6709 429.063L109.499 451.283L110.42 449.683L98.0529 428.262L117.725 416.904L135.155 426.886V449.686H110.42L109.499 451.286H135.155V469.486L98.6838 469.483ZM63.8069 448.033L79.4128 439.023L96.9069 469.483H76.1929L63.8069 448.033ZM42.3369 458.583L42.4298 414.188L61.6299 447.444L42.3369 458.583ZM24.3679 468.036L1.79785 455.005L24.3679 441.974V468.036Z" fill="#91703F"/>
</svg>
