<svg width="33" height="32" viewBox="0 0 33 32" fill="none" xmlns="http://www.w3.org/2000/svg">
<path fill-rule="evenodd" clip-rule="evenodd" d="M9.90364 0.096C11.6098 0.0174545 12.1538 0 16.5 0C20.8462 0 21.3902 0.0189091 23.0949 0.096C24.7996 0.173091 25.9633 0.445091 26.9815 0.839273C28.0476 1.24218 29.0149 1.872 29.8149 2.68655C30.6295 3.48509 31.2578 4.45091 31.6593 5.51855C32.0549 6.53673 32.3255 7.70036 32.404 9.40218C32.4825 11.1113 32.5 11.6553 32.5 16C32.5 20.3462 32.4811 20.8902 32.404 22.5964C32.3269 24.2982 32.0549 25.4618 31.6593 26.48C31.2578 27.5478 30.6284 28.5152 29.8149 29.3149C29.0149 30.1295 28.0476 30.7578 26.9815 31.1593C25.9633 31.5549 24.7996 31.8255 23.0978 31.904C21.3902 31.9825 20.8462 32 16.5 32C12.1538 32 11.6098 31.9811 9.90364 31.904C8.20182 31.8269 7.03818 31.5549 6.02 31.1593C4.95225 30.7578 3.98483 30.1284 3.18509 29.3149C2.3711 28.5159 1.74119 27.5489 1.33927 26.4815C0.945091 25.4633 0.674545 24.2996 0.596 22.5978C0.517455 20.8887 0.5 20.3447 0.5 16C0.5 11.6538 0.518909 11.1098 0.596 9.40509C0.673091 7.70036 0.945091 6.53673 1.33927 5.51855C1.74178 4.45103 2.37217 3.48409 3.18655 2.68509C3.98515 1.87127 4.9516 1.24137 6.01855 0.839273C7.03673 0.445091 8.20036 0.174545 9.90218 0.096H9.90364ZM22.9655 2.976C21.2782 2.89891 20.772 2.88291 16.5 2.88291C12.228 2.88291 11.7218 2.89891 10.0345 2.976C8.47382 3.04727 7.62727 3.30764 7.06291 3.52727C6.31673 3.81818 5.78291 4.16291 5.22291 4.72291C4.69207 5.23935 4.28354 5.86805 4.02727 6.56291C3.80764 7.12727 3.54727 7.97382 3.476 9.53455C3.39891 11.2218 3.38291 11.728 3.38291 16C3.38291 20.272 3.39891 20.7782 3.476 22.4655C3.54727 24.0262 3.80764 24.8727 4.02727 25.4371C4.28327 26.1309 4.692 26.7607 5.22291 27.2771C5.73927 27.808 6.36909 28.2167 7.06291 28.4727C7.62727 28.6924 8.47382 28.9527 10.0345 29.024C11.7218 29.1011 12.2265 29.1171 16.5 29.1171C20.7735 29.1171 21.2782 29.1011 22.9655 29.024C24.5262 28.9527 25.3727 28.6924 25.9371 28.4727C26.6833 28.1818 27.2171 27.8371 27.7771 27.2771C28.308 26.7607 28.7167 26.1309 28.9727 25.4371C29.1924 24.8727 29.4527 24.0262 29.524 22.4655C29.6011 20.7782 29.6171 20.272 29.6171 16C29.6171 11.728 29.6011 11.2218 29.524 9.53455C29.4527 7.97382 29.1924 7.12727 28.9727 6.56291C28.6818 5.81673 28.3371 5.28291 27.7771 4.72291C27.2606 4.1921 26.6319 3.78358 25.9371 3.52727C25.3727 3.30764 24.5262 3.04727 22.9655 2.976V2.976ZM14.4564 20.9324C15.5977 21.4075 16.8686 21.4716 18.0519 21.1138C19.2352 20.756 20.2577 19.9984 20.9445 18.9705C21.6314 17.9426 21.9401 16.7082 21.8179 15.478C21.6957 14.2478 21.1502 13.0981 20.2745 12.2255C19.7163 11.6676 19.0414 11.2405 18.2983 10.9748C17.5552 10.7091 16.7624 10.6114 15.9771 10.6889C15.1917 10.7664 14.4333 11.017 13.7564 11.4227C13.0796 11.8285 12.5011 12.3793 12.0626 13.0354C11.6242 13.6916 11.3366 14.4368 11.2208 15.2174C11.1049 15.998 11.1635 16.7946 11.3924 17.5498C11.6214 18.3051 12.0149 19.0002 12.5447 19.5851C13.0745 20.1699 13.7274 20.6301 14.4564 20.9324ZM10.6847 10.1847C11.4484 9.42105 12.355 8.81528 13.3528 8.40198C14.3506 7.98868 15.42 7.77596 16.5 7.77596C17.58 7.77596 18.6494 7.98868 19.6472 8.40198C20.645 8.81528 21.5516 9.42105 22.3153 10.1847C23.0789 10.9484 23.6847 11.855 24.098 12.8528C24.5113 13.8506 24.724 14.92 24.724 16C24.724 17.08 24.5113 18.1494 24.098 19.1472C23.6847 20.145 23.0789 21.0516 22.3153 21.8153C20.773 23.3576 18.6812 24.224 16.5 24.224C14.3188 24.224 12.227 23.3576 10.6847 21.8153C9.14242 20.273 8.27596 18.1812 8.27596 16C8.27596 13.8188 9.14242 11.727 10.6847 10.1847V10.1847ZM26.548 9.00073C26.7372 8.82221 26.8887 8.60754 26.9935 8.36942C27.0983 8.1313 27.1543 7.87457 27.1581 7.61444C27.1619 7.35431 27.1134 7.09607 27.0156 6.855C26.9178 6.61392 26.7726 6.39492 26.5887 6.21097C26.4047 6.02701 26.1857 5.88183 25.9446 5.78403C25.7036 5.68622 25.4453 5.63778 25.1852 5.64158C24.9251 5.64537 24.6683 5.70131 24.4302 5.8061C24.1921 5.91089 23.9774 6.06239 23.7989 6.25164C23.4517 6.61968 23.2616 7.10854 23.269 7.61444C23.2764 8.12035 23.4806 8.60346 23.8384 8.96123C24.1962 9.31899 24.6793 9.52324 25.1852 9.53062C25.6911 9.53799 26.18 9.34791 26.548 9.00073V9.00073Z" fill="white"/>
</svg>
