<svg width="33" height="26" viewBox="0 0 33 26" fill="none" xmlns="http://www.w3.org/2000/svg">
<path d="M32.5 3.46546C31.3232 3.96658 30.0591 4.30518 28.7301 4.45822C30.1013 3.66969 31.1272 2.42863 31.6164 0.966612C30.328 1.70203 28.918 2.21968 27.4476 2.49707C26.4588 1.48245 25.1491 0.809944 23.7218 0.583962C22.2945 0.357979 20.8296 0.591164 19.5543 1.24731C18.2791 1.90346 17.2649 2.94586 16.6693 4.21268C16.0737 5.47949 15.93 6.89985 16.2604 8.25322C13.6499 8.12725 11.0961 7.47519 8.76485 6.33934C6.43354 5.20349 4.37681 3.60924 2.72813 1.66006C2.16441 2.59459 1.84026 3.6781 1.84026 4.83203C1.83963 5.87084 2.10582 6.89374 2.61522 7.80997C3.12461 8.7262 3.86145 9.50743 4.76037 10.0843C3.71786 10.0525 2.69836 9.78176 1.78671 9.29474V9.376C1.7866 10.833 2.31102 12.2451 3.27098 13.3728C4.23094 14.5005 5.56731 15.2743 7.05333 15.5628C6.08624 15.8144 5.07231 15.8514 4.08813 15.6712C4.5074 16.9248 5.32409 18.0211 6.42389 18.8065C7.52368 19.5919 8.85151 20.0272 10.2215 20.0513C7.89587 21.8058 5.02376 22.7575 2.06716 22.7533C1.54343 22.7534 1.02015 22.724 0.5 22.6653C3.50111 24.5196 6.99462 25.5038 10.5625 25.5C22.6404 25.5 29.2431 15.8865 29.2431 7.54894C29.2431 7.27806 29.236 7.00447 29.2233 6.73359C30.5076 5.84102 31.6162 4.73573 32.4972 3.46952L32.5 3.46546Z" fill="white"/>
</svg>
