<svg width="33" height="32" viewBox="0 0 33 32" fill="none" xmlns="http://www.w3.org/2000/svg">
<path fill-rule="evenodd" clip-rule="evenodd" d="M23.8317 19.1761C23.4325 18.9774 21.4751 18.0201 21.1107 17.8867C20.7463 17.7547 20.481 17.6894 20.2144 18.0867C19.9491 18.4814 19.1868 19.3747 18.9551 19.6387C18.7219 19.9041 18.4902 19.9361 18.0923 19.7387C17.6943 19.5387 16.4109 19.1214 14.8903 17.7721C13.7073 16.7214 12.9074 15.4241 12.6756 15.0267C12.4439 14.6307 12.6502 14.4161 12.8498 14.2187C13.0293 14.0414 13.2477 13.7561 13.4473 13.5254C13.647 13.2934 13.7126 13.1281 13.8452 12.8627C13.9792 12.5987 13.9122 12.3681 13.8118 12.1694C13.7126 11.9707 12.9168 10.0201 12.5845 9.22672C12.2617 8.45472 11.9334 8.56005 11.6896 8.54672C11.4565 8.53605 11.1912 8.53339 10.9259 8.53339C10.6607 8.53339 10.2293 8.63205 9.86485 9.02939C9.4991 9.42539 8.47151 10.3841 8.47151 12.3347C8.47151 14.2841 9.89701 16.1681 10.0966 16.4334C10.2963 16.6974 12.9034 20.7001 16.8972 22.4161C17.8484 22.8241 18.5893 23.0681 19.1667 23.2494C20.1206 23.5521 20.9888 23.5094 21.6747 23.4067C22.4384 23.2934 24.03 22.4481 24.3623 21.5227C24.6932 20.5974 24.6932 19.8041 24.5941 19.6387C24.4949 19.4734 24.2296 19.3747 23.8304 19.1761H23.8317ZM16.5676 29.0467H16.5623C14.1901 29.0472 11.8616 28.4125 9.82064 27.2094L9.33833 26.9241L4.32499 28.2334L5.6634 23.3694L5.34855 22.8707C4.02239 20.7699 3.32057 18.3384 3.32419 15.8574C3.32687 8.59072 9.26732 2.67872 16.573 2.67872C20.1099 2.67872 23.4352 4.05205 25.9352 6.54272C27.1682 7.76483 28.1456 9.21814 28.8106 10.8186C29.4757 12.419 29.8153 14.1348 29.8097 15.8667C29.807 23.1334 23.8666 29.0467 16.5676 29.0467V29.0467ZM27.8376 4.65072C26.3614 3.17195 24.6051 1.99944 22.6703 1.20112C20.7355 0.402806 18.6608 -0.005435 16.5663 5.46367e-05C7.78556 5.46367e-05 0.636654 7.11339 0.633975 15.8561C0.632635 18.6507 1.36548 21.3787 2.76016 23.7827L0.5 32.0001L8.94578 29.7947C11.2821 31.0615 13.9003 31.7253 16.5609 31.7254H16.5676C25.3483 31.7254 32.4972 24.6121 32.4999 15.8681C32.5064 13.7844 32.0977 11.7202 31.2974 9.79477C30.4971 7.86934 29.3212 6.12095 27.8376 4.65072" fill="white"/>
</svg>
